<svg width="505" height="181" viewBox="0 0 505 181" fill="none" xmlns="http://www.w3.org/2000/svg">
<g opacity="0.1">
<path d="M162.298 141.25H133.798V178H94.2979V141.25H0.0478519V114L82.5479 2.99999H125.048L48.5479 108.25H95.5479V75.5H133.798V108.25H162.298V141.25ZM249.411 181C234.911 181 221.994 177.417 210.661 170.25C199.328 163.083 190.411 152.75 183.911 139.25C177.578 125.583 174.411 109.333 174.411 90.5C174.411 71.6667 177.578 55.5 183.911 42C190.411 28.3333 199.328 17.9167 210.661 10.75C221.994 3.58333 234.911 -3.09944e-06 249.411 -3.09944e-06C263.911 -3.09944e-06 276.828 3.58333 288.161 10.75C299.494 17.9167 308.328 28.3333 314.661 42C321.161 55.5 324.411 71.6667 324.411 90.5C324.411 109.333 321.161 125.583 314.661 139.25C308.328 152.75 299.494 163.083 288.161 170.25C276.828 177.417 263.911 181 249.411 181ZM249.411 146.75C260.078 146.75 268.411 142.167 274.411 133C280.578 123.833 283.661 109.667 283.661 90.5C283.661 71.3333 280.578 57.1667 274.411 48C268.411 38.8333 260.078 34.25 249.411 34.25C238.911 34.25 230.578 38.8333 224.411 48C218.411 57.1667 215.411 71.3333 215.411 90.5C215.411 109.667 218.411 123.833 224.411 133C230.578 142.167 238.911 146.75 249.411 146.75ZM504.339 141.25H475.839V178H436.339V141.25H342.089V114L424.589 2.99999H467.089L390.589 108.25H437.589V75.5H475.839V108.25H504.339V141.25Z" fill="#5F433B"/>
<path d="M162.298 141.25H133.798V178H94.2979V141.25H0.0478519V114L82.5479 2.99999H125.048L48.5479 108.25H95.5479V75.5H133.798V108.25H162.298V141.25ZM249.411 181C234.911 181 221.994 177.417 210.661 170.25C199.328 163.083 190.411 152.75 183.911 139.25C177.578 125.583 174.411 109.333 174.411 90.5C174.411 71.6667 177.578 55.5 183.911 42C190.411 28.3333 199.328 17.9167 210.661 10.75C221.994 3.58333 234.911 -3.09944e-06 249.411 -3.09944e-06C263.911 -3.09944e-06 276.828 3.58333 288.161 10.75C299.494 17.9167 308.328 28.3333 314.661 42C321.161 55.5 324.411 71.6667 324.411 90.5C324.411 109.333 321.161 125.583 314.661 139.25C308.328 152.75 299.494 163.083 288.161 170.25C276.828 177.417 263.911 181 249.411 181ZM249.411 146.75C260.078 146.75 268.411 142.167 274.411 133C280.578 123.833 283.661 109.667 283.661 90.5C283.661 71.3333 280.578 57.1667 274.411 48C268.411 38.8333 260.078 34.25 249.411 34.25C238.911 34.25 230.578 38.8333 224.411 48C218.411 57.1667 215.411 71.3333 215.411 90.5C215.411 109.667 218.411 123.833 224.411 133C230.578 142.167 238.911 146.75 249.411 146.75ZM504.339 141.25H475.839V178H436.339V141.25H342.089V114L424.589 2.99999H467.089L390.589 108.25H437.589V75.5H475.839V108.25H504.339V141.25Z" fill="url(#paint0_linear)"/>
</g>
<defs>
<linearGradient id="paint0_linear" x1="249.5" y1="-64" x2="249.5" y2="241" gradientUnits="userSpaceOnUse">
<stop stop-color="white" stop-opacity="0.3"/>
<stop offset="1" stop-color="white"/>
</linearGradient>
</defs>
</svg>
