<svg xmlns="http://www.w3.org/2000/svg" width="14" height="14" viewBox="0 0 14 14"><g><g><path fill="#a3bd61" d="M12.299 10.921c.463.465.46 1.036-.006 1.51-.315.317-.65.62-.947.952-.435.488-.977.644-1.6.61-.907-.05-1.74-.35-2.545-.742a13.875 13.875 0 0 1-4.594-3.593C1.66 8.534.879 7.308.365 5.925c-.25-.667-.428-1.351-.373-2.077a1.69 1.69 0 0 1 .53-1.14c.357-.338.692-.69 1.041-1.033.455-.45 1.027-.45 1.484-.004.283.276.56.56.84.838.27.276.542.543.813.817.478.48.478 1.04.003 1.519-.341.343-.68.686-1.026 1.02-.09.092-.1.165-.053.275.23.548.56 1.036.93 1.49.746.914 1.589 1.728 2.594 2.361.216.134.455.233.68.355.113.064.192.043.285-.052.341-.35.688-.694 1.035-1.04.455-.449 1.026-.449 1.484 0 .556.556 1.113 1.109 1.667 1.667zM9.037 4.929a3.704 3.704 0 0 0-2.122-1.058l.152-1.081a4.783 4.783 0 0 1 2.74 1.367A4.81 4.81 0 0 1 11.15 6.75l-1.075.184a3.704 3.704 0 0 0-1.038-2.005zm4.952 1.634l-1.075.184a6.864 6.864 0 0 0-1.927-3.716 6.891 6.891 0 0 0-3.93-1.959l.152-1.08a7.923 7.923 0 0 1 4.548 2.268 7.985 7.985 0 0 1 2.232 4.303z"/></g></g></svg>